<svg width="81" height="74" viewBox="0 0 81 74" fill="none" xmlns="http://www.w3.org/2000/svg">
<g filter="url(#filter0_d_206_5)">
<path d="M40.04 31.0302C43.1099 31.0302 45.6135 33.5337 45.6135 36.6632C45.6135 39.6437 43.1099 42.1771 40.04 42.1771C36.9701 42.1771 34.4665 39.6437 34.4665 36.6632C34.4665 33.5337 36.9701 31.0302 40.04 31.0302ZM26.2404 60.507C28.1181 61.6395 32.2312 59.9109 36.9701 55.4402C35.4203 53.6817 33.9002 51.7742 32.4696 49.7773C30.068 49.5458 27.6803 49.1876 25.3165 48.7043C23.7965 55.0825 24.3628 59.4638 26.2404 60.507ZM28.3566 43.3991L27.4922 41.879C27.1644 42.7434 26.8365 43.6077 26.6279 44.4422C27.4326 44.6211 28.3268 44.7701 29.2507 44.9191L28.3566 43.3991ZM47.8488 41.1339L50.263 36.6632L47.8488 32.1925C46.9547 30.6129 46.0009 29.2121 45.1366 27.8113C43.5271 27.7218 41.8283 27.7218 40.04 27.7218C38.2517 27.7218 36.5529 27.7218 34.9434 27.8113C34.0791 29.2121 33.1253 30.6129 32.2312 32.1925L29.817 36.6632L32.2312 41.1339C33.1253 42.7136 34.0791 44.1144 34.9434 45.5152C36.5529 45.6046 38.2517 45.6046 40.04 45.6046C41.8283 45.6046 43.5271 45.6046 45.1366 45.5152C46.0009 44.1144 46.9547 42.7136 47.8488 41.1339ZM40.04 21.1052C39.4737 21.7609 38.8776 22.4464 38.2815 23.2511H41.7985C41.2024 22.4464 40.6063 21.7609 40.04 21.1052ZM40.04 52.2213C40.6063 51.5656 41.2024 50.8801 41.7985 50.0753H38.2815C38.8776 50.8801 39.4737 51.5656 40.04 52.2213ZM53.8097 12.8195C51.9619 11.6869 47.8488 13.4156 43.1099 17.8863C44.6597 19.6448 46.1798 21.5523 47.6104 23.5492C50.0544 23.7876 52.4685 24.1453 54.7635 24.6222C56.2835 18.244 55.7172 13.8627 53.8097 12.8195ZM51.7234 29.9274L52.5878 31.4474C52.9156 30.5831 53.2435 29.7188 53.4521 28.8842C52.6474 28.7054 51.7532 28.5564 50.8293 28.4073L51.7234 29.9274ZM56.0451 8.9151C60.4264 11.4187 60.9033 18.0055 59.0554 25.6951C66.6257 27.9305 72.08 31.6262 72.08 36.6632C72.08 41.7002 66.6257 45.396 59.0554 47.6313C60.9033 55.3209 60.4264 61.9078 56.0451 64.4114C51.6936 66.915 45.7625 64.0537 40.04 58.5995C34.3175 64.0537 28.3864 66.915 24.0051 64.4114C19.6536 61.9078 19.1767 55.3209 21.0246 47.6313C13.4543 45.396 8 41.7002 8 36.6632C8 31.6262 13.4543 27.9305 21.0246 25.6951C19.1767 18.0055 19.6536 11.4187 24.0051 8.9151C28.3864 6.41151 34.3175 9.27276 40.04 14.727C45.7625 9.27276 51.6936 6.41151 56.0451 8.9151ZM55.1808 36.6632C56.1941 38.8986 57.0883 41.1339 57.8334 43.3991C64.0924 41.5214 67.6093 38.839 67.6093 36.6632C67.6093 34.4875 64.0924 31.8051 57.8334 29.9274C57.0883 32.1925 56.1941 34.4279 55.1808 36.6632ZM24.8992 36.6632C23.8859 34.4279 22.9917 32.1925 22.2466 29.9274C15.9876 31.8051 12.4707 34.4875 12.4707 36.6632C12.4707 38.839 15.9876 41.5214 22.2466 43.3991C22.9917 41.1339 23.8859 38.8986 24.8992 36.6632ZM51.7234 43.3991L50.8293 44.9191C51.7532 44.7701 52.6474 44.6211 53.4521 44.4422C53.2435 43.6077 52.9156 42.7434 52.5878 41.879L51.7234 43.3991ZM43.1099 55.4402C47.8488 59.9109 51.9619 61.6395 53.8097 60.507C55.7172 59.4638 56.2835 55.0825 54.7635 48.7043C52.4685 49.1812 50.0544 49.5388 47.6104 49.7773C46.1798 51.7742 44.6597 53.6817 43.1099 55.4402ZM28.3566 29.9274L29.2507 28.4073C28.3268 28.5564 27.4326 28.7054 26.6279 28.8842C26.8365 29.7188 27.1644 30.5831 27.4922 31.4474L28.3566 29.9274ZM36.9701 17.8863C32.2312 13.4156 28.1181 11.6869 26.2404 12.8195C24.3628 13.8627 23.7965 18.244 25.3165 24.6222C27.6803 24.1389 30.068 23.7807 32.4696 23.5492C33.9002 21.5523 35.4203 19.6448 36.9701 17.8863Z" fill="#C34482"/>
</g>
<defs>
<filter id="filter0_d_206_5" x="0" y="0" width="80.08" height="73.3265" filterUnits="userSpaceOnUse" color-interpolation-filters="sRGB">
<feFlood flood-opacity="0" result="BackgroundImageFix"/>
<feColorMatrix in="SourceAlpha" type="matrix" values="0 0 0 0 0 0 0 0 0 0 0 0 0 0 0 0 0 0 127 0" result="hardAlpha"/>
<feOffset/>
<feGaussianBlur stdDeviation="4"/>
<feComposite in2="hardAlpha" operator="out"/>
<feColorMatrix type="matrix" values="0 0 0 0 0.764706 0 0 0 0 0.266667 0 0 0 0 0.509804 0 0 0 0.3 0"/>
<feBlend mode="normal" in2="BackgroundImageFix" result="effect1_dropShadow_206_5"/>
<feBlend mode="normal" in="SourceGraphic" in2="effect1_dropShadow_206_5" result="shape"/>
</filter>
</defs>
</svg>
